<svg xmlns="http://www.w3.org/2000/svg" viewBox="0 0 32 32" id="phone">
  <path d="M30.404 19.825a1.499 1.499 0 0 0-1.035-.687l-9.458-1.517a1.489 1.489 0 0 0-1.232.357 7.753 7.753 0 0 0-1.789 2.304 13.823 13.823 0 0 1-2.931-2.241 13.823 13.823 0 0 1-2.241-2.931 7.753 7.753 0 0 0 2.304-1.79 1.5 1.5 0 0 0 .357-1.231L12.862 2.63a1.499 1.499 0 0 0-.687-1.035 6.663 6.663 0 0 0-2.155-.87A6.954 6.954 0 0 0 8.225.5C3.965.5.5 3.965.5 8.225.5 21.059 10.941 31.5 23.775 31.5c4.26 0 7.725-3.465 7.725-7.725a6.71 6.71 0 0 0-.207-1.712 6.837 6.837 0 0 0-.89-2.238zM23.775 28.5C12.595 28.5 3.5 19.404 3.5 8.225A4.73 4.73 0 0 1 8.225 3.5c.367 0 .71.042 1.103.145.244.05.474.12.692.207l1.276 7.954A4.539 4.539 0 0 1 9.31 12.81a1.5 1.5 0 0 0-1.058 2.051c.842 1.98 2.048 3.765 3.586 5.302s3.321 2.744 5.302 3.586a1.503 1.503 0 0 0 2.051-1.058 4.539 4.539 0 0 1 1.003-1.986l7.952 1.276c.092.23.167.483.229.775.083.31.125.653.125 1.02a4.73 4.73 0 0 1-4.725 4.725z"></path>
</svg>
